<?xml version="1.0" encoding="UTF-8"?>
<svg xmlns="http://www.w3.org/2000/svg" xmlns:xlink="http://www.w3.org/1999/xlink" width="64pt" height="64pt" viewBox="0 0 64 64" version="1.1">
<g id="surface4081141">
<path style=" stroke:none;fill-rule:nonzero;fill:rgb(31.372549%,82.745098%,55.294118%);fill-opacity:1;" d="M 26.851562 8.5 C 22.5 8.5 19 12 19 16.351562 L 19 31.5 C 19 34.550781 20.199219 37.449219 22.351562 39.648438 C 23.148438 40.449219 24.050781 41.101562 25 41.648438 C 19.648438 43.402344 15 47.050781 12.097656 52.097656 C 11.75 52.75 12 53.699219 12.75 54.097656 C 13 54.25 13.25 54.300781 13.5 54.300781 C 14 54.300781 14.550781 54.050781 14.800781 53.550781 C 18.300781 47.351562 24.898438 43.5 32 43.5 C 39.101562 43.5 45.699219 47.351562 49.25 53.550781 C 49.648438 54.25 50.550781 54.5 51.300781 54.097656 C 52 53.699219 52.25 52.800781 51.851562 52.050781 C 49 47 44.351562 43.347656 38.949219 41.597656 C 42.550781 39.648438 45 35.851562 45 31.5 L 45 19 C 45 15.398438 42.300781 12.449219 38.800781 12.050781 L 38.597656 11.800781 C 37.148438 9.75 34.75 8.5 32.25 8.5 Z M 38.335938 16.707031 C 38.761719 16.738281 39.175781 16.949219 39.449219 17.347656 C 39.898438 17.949219 39.75 18.800781 39.25 19.300781 C 38.949219 19.601562 38.648438 19.847656 38.347656 20.097656 C 37.800781 20.550781 37.898438 21.398438 38.5 21.75 C 38.699219 21.851562 38.898438 21.949219 39.050781 22 C 39.550781 22.199219 40.050781 22.300781 40.648438 22.351562 C 41.300781 22.449219 41.851562 22.949219 41.949219 23.652344 C 42 24.101562 42.050781 24.5 42.050781 24.949219 C 42.050781 27.75 40.898438 30.300781 39 32.101562 C 38.648438 32.449219 38.050781 32.351562 37.800781 31.902344 C 36.699219 29.851562 34.550781 28.402344 32.050781 28.402344 C 29.550781 28.402344 27.398438 29.800781 26.300781 31.902344 C 26.050781 32.351562 25.449219 32.449219 25.097656 32.101562 C 23.148438 30.351562 22 27.800781 22 25 C 22 24.199219 22.101562 23.398438 22.300781 22.601562 C 22.449219 21.949219 23.050781 21.449219 23.75 21.449219 C 28.449219 21.351562 33.050781 20.800781 36.5 17.75 C 36.699219 17.550781 36.949219 17.351562 37.148438 17.152344 C 37.476562 16.824219 37.914062 16.675781 38.335938 16.707031 Z M 14.753906 19.191406 C 14.527344 19.167969 14.289062 19.199219 14.050781 19.300781 C 10.351562 20.851562 7.75 24.5 7.75 28.75 C 7.75 33.398438 10.851562 37.300781 15.101562 38.550781 C 16.648438 39 17.5 38.097656 16.902344 36.597656 L 16.902344 36.550781 C 16.75 36.148438 16.398438 35.800781 15.949219 35.699219 C 12.949219 34.851562 10.75 32.050781 10.75 28.75 C 10.75 25.800781 12.550781 23.199219 15.101562 22.097656 C 15.648438 21.851562 16 21.351562 16 20.800781 L 16 20.597656 C 16 19.851562 15.4375 19.269531 14.757812 19.191406 Z M 49.246094 19.191406 C 48.5625 19.269531 48 19.847656 48 20.597656 L 48 20.800781 C 48 21.351562 48.351562 21.847656 48.902344 22.097656 C 51.449219 23.199219 53.25 25.800781 53.25 28.75 C 53.25 32.050781 51.050781 34.800781 48.050781 35.699219 C 47.601562 35.851562 47.25 36.148438 47.097656 36.550781 L 47.097656 36.597656 C 46.5 38.25 47.25 39.050781 48.949219 38.550781 C 53.148438 37.300781 56.25 33.351562 56.25 28.75 C 56.25 24.550781 53.648438 20.898438 49.949219 19.300781 C 49.710938 19.199219 49.472656 19.167969 49.246094 19.191406 Z M 30.902344 31.992188 C 31 31.984375 31.101562 31.988281 31.199219 32 C 31.75 32.050781 32.300781 32.050781 32.800781 32 C 33.601562 31.898438 34.351562 32.5 34.449219 33.351562 C 34.550781 34.101562 33.949219 34.851562 33.097656 34.949219 C 32.75 35 32.351562 35 32 35 C 31.601562 35 31.199219 35 30.851562 34.949219 C 30.050781 34.851562 29.449219 34.101562 29.550781 33.300781 C 29.636719 32.601562 30.222656 32.054688 30.902344 31.992188 Z M 12.902344 42.753906 C 12.800781 42.761719 12.699219 42.773438 12.597656 42.800781 C 7.5 44.25 3.101562 47.699219 0.5 52.25 C 0.101562 53 0.351562 53.898438 1.050781 54.300781 C 1.300781 54.449219 1.550781 54.5 1.800781 54.5 C 2.300781 54.5 2.851562 54.25 3.101562 53.75 C 5.300781 49.851562 9.050781 46.898438 13.402344 45.699219 C 14.199219 45.5 14.648438 44.648438 14.449219 43.851562 C 14.273438 43.148438 13.601562 42.71875 12.902344 42.753906 Z M 51.097656 42.753906 C 50.398438 42.71875 49.726562 43.148438 49.550781 43.851562 C 49.351562 44.648438 49.800781 45.5 50.597656 45.699219 C 54.898438 46.898438 58.648438 49.851562 60.902344 53.75 C 61.199219 54.25 61.699219 54.5 62.199219 54.5 C 62.449219 54.5 62.699219 54.449219 62.949219 54.300781 C 63.648438 53.898438 63.898438 53 63.5 52.25 C 60.898438 47.648438 56.5 44.199219 51.402344 42.800781 C 51.300781 42.773438 51.199219 42.761719 51.097656 42.753906 Z M 51.097656 42.753906 "/>
</g>
</svg>
