<?xml version="1.0" encoding="UTF-8"?>
<svg xmlns="http://www.w3.org/2000/svg" xmlns:xlink="http://www.w3.org/1999/xlink" width="64pt" height="64pt" viewBox="0 0 64 64" version="1.1">
<g id="surface4080028">
<path style=" stroke:none;fill-rule:nonzero;fill:rgb(99.215686%,82.352941%,19.215686%);fill-opacity:1;" d="M 7 14.5 C 6.148438 14.5 5.5 15.148438 5.5 16 L 5.5 57.5 L 3.5 57.5 C 1.851562 57.5 0.5 58.851562 0.5 60.5 C 0.5 62.148438 1.851562 63.5 3.5 63.5 L 33 63.5 C 33.851562 63.5 34.5 62.851562 34.5 62 C 34.5 61.148438 33.851562 60.5 33 60.5 L 29.5 60.5 L 29.5 59 C 29.5 58.148438 28.851562 57.5 28 57.5 L 8.5 57.5 L 8.5 17.5 L 57 17.5 C 57.851562 17.5 58.5 16.851562 58.5 16 C 58.5 15.148438 57.851562 14.5 57 14.5 Z M 42 20.5 C 38.398438 20.5 35.5 23.398438 35.5 27 L 35.5 57 C 35.5 60.601562 38.398438 63.5 42 63.5 L 57 63.5 C 60.601562 63.5 63.5 60.601562 63.5 57 L 63.5 27 C 63.5 23.398438 60.601562 20.5 57 20.5 Z M 42 23.5 L 57 23.5 C 58.949219 23.5 60.5 25.050781 60.5 27 L 60.5 57 C 60.5 58.949219 58.949219 60.5 57 60.5 L 42 60.5 C 40.050781 60.5 38.5 58.949219 38.5 57 L 38.5 27 C 38.5 25.050781 40.050781 23.5 42 23.5 Z M 42 23.5 "/>
</g>
</svg>
