<?xml version="1.0" encoding="utf-8"?>
<!-- Generator: Adobe Illustrator 23.1.1, SVG Export Plug-In . SVG Version: 6.00 Build 0)  -->
<svg version="1.1" id="Layer_1" xmlns="http://www.w3.org/2000/svg" xmlns:xlink="http://www.w3.org/1999/xlink" x="0px" y="0px"
	 viewBox="0 0 64 64" style="enable-background:new 0 0 64 64;" xml:space="preserve">
<style type="text/css">
	.st0{fill:#3452FF;}
</style>
<g id="surface4071068">
	<path class="st0" d="M8.1,5.7C6,5.7,4.3,7.4,4.3,9.4v36c0,2.1,1.7,3.8,3.8,3.8h14.1l-0.5,3.1c-0.1,0.8,0.4,1.5,1.2,1.7h0.2
		c0.7,0,1.3-0.5,1.4-1.2l1.6-9.5c0.1-0.8-0.4-1.5-1.2-1.7c-0.1,0-0.3,0-0.4,0H7.2V9.4c0-0.5,0.4-0.9,0.9-0.9h47.3
		c0.5,0,0.9,0.4,0.9,0.9v32.8c-7.8-0.5-14.8-5.4-17.8-12.7l-0.5-1.1c-0.2-0.7-0.9-1.1-1.6-1c-0.8,0.1-1.3,0.9-1.2,1.6l2.9,18.6v0.1
		c0,0.2,0,0.4,0.1,0.6l1,6.3c0,0.4-0.1,0.7-0.2,0.8c-0.1,0.1-0.3,0.3-0.7,0.3H15.6c-0.8,0-1.4,0.6-1.4,1.4c0,0.8,0.6,1.4,1.4,1.4
		h32.3c0.8,0,1.4-0.6,1.4-1.4c0-0.8-0.6-1.4-1.4-1.4h-5.8c0.1-0.5,0.1-1,0-1.6l-0.8-5.1h14.1c2.1,0,3.8-1.7,3.8-3.8v-36
		c0-2.1-1.7-3.8-3.8-3.8H8.1z M31.8,15.1c-1.8,0-3.3,1.5-3.3,3.3s1.5,3.3,3.3,3.3c1.1,0,2.2-0.6,2.7-1.5c-0.5-0.4-0.9-1-0.9-1.8
		s0.3-1.4,0.9-1.8C33.9,15.7,32.9,15.1,31.8,15.1z M31.8,41.2c-1.8,0-3.3,1.5-3.3,3.3c0,1.8,1.5,3.3,3.3,3.3s3.3-1.5,3.3-3.3
		C35.1,42.6,33.6,41.2,31.8,41.2z M55,55.8c-0.8,0-1.4,0.6-1.4,1.4c0,0.8,0.6,1.4,1.4,1.4c0.8,0,1.4-0.6,1.4-1.4
		C56.4,56.5,55.8,55.8,55,55.8z"/>
</g>
</svg>
