<?xml version="1.0" encoding="utf-8"?>
<!-- Generator: Adobe Illustrator 23.1.1, SVG Export Plug-In . SVG Version: 6.00 Build 0)  -->
<svg version="1.1" id="Layer_1" xmlns="http://www.w3.org/2000/svg" xmlns:xlink="http://www.w3.org/1999/xlink" x="0px" y="0px"
	 viewBox="0 0 64 64" style="enable-background:new 0 0 64 64;" xml:space="preserve">
<style type="text/css">
	.st0{fill:#EC5A5A;}
</style>
<g id="surface4068866">
	<path class="st0" d="M9.2,3c-3.3,0-6,2.7-6,6v13.8c0,3.3,2.7,6,6,6c1.8,0,3.5-0.8,4.6-2.2c0.3,0.3,0.6,0.6,0.9,0.9v16
		c0,0.8,0.6,1.4,1.4,1.4h32.2c0.8,0,1.4-0.6,1.4-1.4v-16c0.3-0.3,0.6-0.6,0.9-0.9c1.1,1.3,2.8,2.2,4.6,2.2c3.3,0,6-2.7,6-6V9
		c0-3.3-2.7-6-6-6H9.2z M9.2,5.8h46c1.8,0,3.2,1.4,3.2,3.2v13.8c0,1.8-1.4,3.2-3.2,3.2c-1.8,0-3.2-1.4-3.2-3.2V11.3
		c0-0.8-0.6-1.4-1.4-1.4s-1.4,0.6-1.4,1.4v11.5c0,1.8-1.4,3.2-3.2,3.2c-1.8,0-3.2-1.4-3.2-3.2V11.3c0-0.8-0.6-1.4-1.4-1.4
		s-1.4,0.6-1.4,1.4v11.5c0,1.8-1.4,3.2-3.2,3.2c-1.8,0-3.2-1.4-3.2-3.2V11.3c0-0.8-0.6-1.4-1.4-1.4c-0.8,0-1.4,0.6-1.4,1.4v11.5
		c0,1.8-1.4,3.2-3.2,3.2c-1.8,0-3.2-1.4-3.2-3.2V11.3c0-0.8-0.6-1.4-1.4-1.4s-1.4,0.6-1.4,1.4v11.5c0,1.8-1.4,3.2-3.2,3.2
		s-3.2-1.4-3.2-3.2v-4.6c0-0.8-0.6-1.4-1.4-1.4c-0.8,0-1.4,0.6-1.4,1.4v4.6c0,1.8-1.4,3.2-3.2,3.2S6,24.6,6,22.8V9
		C6,7.2,7.5,5.8,9.2,5.8z M13.8,9.7c-0.3,0-0.7,0.2-0.9,0.4c0,0-0.1,0.1-0.2,0.2s-0.1,0.1-0.1,0.2c0,0.1,0,0.2-0.1,0.3
		c0,0.1,0,0.2,0,0.3c0,0.1,0,0.2,0,0.3c0,0.2,0,0.3,0.1,0.4c0,0.1,0.1,0.2,0.1,0.2c0,0.1,0.1,0.1,0.2,0.2c0.3,0.3,0.6,0.4,1,0.4
		c0.1,0,0.2,0,0.3,0c0.1,0,0.2,0,0.3-0.1c0.1,0,0.2-0.1,0.2-0.1c0.1,0,0.1-0.1,0.2-0.2L15,12c0-0.1,0.1-0.1,0.1-0.2
		c0-0.1,0-0.2,0.1-0.3c0-0.1,0-0.2,0-0.3c0-0.1,0-0.2,0-0.3c0-0.1,0-0.2-0.1-0.3c0-0.1-0.1-0.1-0.1-0.2c0-0.1-0.1-0.1-0.2-0.2
		c0,0-0.1-0.1-0.2-0.2c-0.1,0-0.1-0.1-0.2-0.1c-0.1,0-0.2,0-0.3-0.1C14,9.7,13.9,9.7,13.8,9.7z M9.2,30.6c-0.8,0-1.4,0.6-1.4,1.4
		v19.3H4.6c-0.8,0-1.4,0.6-1.4,1.4s0.6,1.4,1.4,1.4h55.2c0.8,0,1.4-0.6,1.4-1.4s-0.6-1.4-1.4-1.4h-3.2V32c0-0.8-0.6-1.4-1.4-1.4
		s-1.4,0.6-1.4,1.4v19.3H10.6V32C10.6,31.2,10,30.6,9.2,30.6z M13.8,58.2c-0.8,0-1.4,0.6-1.4,1.4c0,0.8,0.6,1.4,1.4,1.4h27.6
		c0.8,0,1.4-0.6,1.4-1.4c0-0.8-0.6-1.4-1.4-1.4H13.8z M50.7,58.2c-0.8,0-1.4,0.6-1.4,1.4c0,0.8,0.6,1.4,1.4,1.4h4.6
		c0.8,0,1.4-0.6,1.4-1.4c0-0.8-0.6-1.4-1.4-1.4H50.7z"/>
</g>
</svg>
